<svg width="65" height="68" viewBox="0 0 65 68" fill="none" xmlns="http://www.w3.org/2000/svg">
<path d="M24.6552 44.1595V38.8026C24.6552 36.5724 22.8396 34.7569 20.6095 34.7569H4.04569C1.81552 34.7569 0 36.5724 0 38.8026V44.1595C0 46.3896 1.81552 48.2052 4.04569 48.2052H20.6095C22.8396 48.2052 24.6552 46.3896 24.6552 44.1595ZM15.6896 44.8431C13.8405 44.8431 12.3276 43.3302 12.3276 41.481C12.3276 39.6319 13.8405 38.1189 15.6896 38.1189C17.5388 38.1189 19.0517 39.6319 19.0517 41.481C19.0517 43.3302 17.5388 44.8431 15.6896 44.8431Z" fill="#1A73E8"/>
<path d="M6.72418 20.8378V32.5153H22.1112C24.7449 32.5153 26.8966 34.936 26.8966 37.9059V45.0447C26.8966 48.0145 24.7561 50.4352 22.1112 50.4352H6.72418V62.1127C6.72418 64.9481 9.02159 67.2455 11.8569 67.2455H59.8673C62.7026 67.2455 65 64.9481 65 62.1127V20.8378C65 18.0024 62.7026 15.705 59.8673 15.705H11.8569C9.02159 15.705 6.72418 18.0024 6.72418 20.8378Z" fill="#1A73E8"/>
<path d="M32.2198 11.5808L31.2672 8.38684C30.5836 8.6446 30.1465 9.04804 29.9784 9.37304C29.9112 9.49632 29.8439 9.68684 29.8888 9.85494L30.2586 11.1101C30.3819 11.536 31.256 11.8161 32.2198 11.592V11.5808Z" fill="#1A73E8"/>
<path d="M35.0216 13.1051L35.1336 13.4637H36.9267C36.6914 13.1051 35.8957 12.9034 35.0216 13.1051Z" fill="#1A73E8"/>
<path d="M39.4707 1.48351C36.5793 -0.0854522 33.2396 -0.421659 30.0793 0.530927C26.9302 1.48351 24.3302 3.60161 22.7612 6.49299C21.5957 8.65592 21.1138 11.0654 21.3379 13.4637H29.631C28.9026 13.0939 28.3422 12.5223 28.1069 11.749L27.7371 10.4939C27.5241 9.79903 27.6138 9.01454 27.9948 8.30851C28.4991 7.36713 29.4517 6.63868 30.6172 6.23523L29.9672 4.0723L32.119 3.43351L32.7578 5.57403L35.9741 4.59903L36.6129 6.75075L33.3965 7.72575L34.3715 10.9533C36.5457 10.393 38.6077 11.2223 39.1233 12.9257L39.2802 13.4525H45.881C46.0267 11.8947 45.881 10.3033 45.4215 8.7904C44.469 5.64127 42.3508 3.04127 39.4595 1.47231L39.4707 1.48351Z" fill="#1A73E8"/>
<path d="M61.7837 13.4638C62.1199 13.4638 62.4336 13.5087 62.7586 13.5647V11.3121C62.7586 8.90263 61.0552 6.95263 58.9483 6.95263H46.8337C47.1138 7.55781 47.3716 8.18539 47.5733 8.83539C48.0328 10.3483 48.2233 11.9061 48.1673 13.4638H61.7949H61.7837Z" fill="#1A73E8"/>
<path d="M20.4078 6.94107H12.4733C10.3776 6.94107 8.96557 8.54366 8.96557 10.9531V13.5531C9.27936 13.4971 9.60436 13.4523 9.94057 13.4523H19.0742C18.9957 11.2221 19.444 9.00314 20.4078 6.92987V6.94107Z" fill="#1A73E8"/>
</svg>
