<svg width="44" height="28" viewBox="0 0 44 28" fill="none" xmlns="http://www.w3.org/2000/svg">
<path d="M25.3023 2.30812H34.9973C38.6906 2.30812 41.6915 5.30894 41.6915 9.00227V18.6972C41.6915 20.4726 40.9862 22.1753 39.7308 23.4307C38.4754 24.6861 36.7727 25.3914 34.9973 25.3914H25.3023C21.609 25.3914 18.6082 22.3906 18.6082 18.6972V9.00227C18.6082 7.22687 19.3135 5.52418 20.5689 4.26879C21.8243 3.01339 23.5269 2.30812 25.3023 2.30812ZM25.0715 4.61644C23.9695 4.61644 22.9127 5.0542 22.1335 5.83341C21.3543 6.61262 20.9165 7.66946 20.9165 8.77143V18.9281C20.9165 21.2249 22.7747 23.0831 25.0715 23.0831H35.2281C36.3301 23.0831 37.387 22.6453 38.1662 21.8661C38.9454 21.0869 39.3831 20.03 39.3831 18.9281V8.77143C39.3831 6.47465 37.5249 4.61644 35.2281 4.61644H25.0715ZM36.2092 6.34769C36.5918 6.34769 36.9588 6.49969 37.2293 6.77025C37.4999 7.04081 37.6519 7.40776 37.6519 7.79039C37.6519 8.17302 37.4999 8.53998 37.2293 8.81054C36.9588 9.0811 36.5918 9.2331 36.2092 9.2331C35.8266 9.2331 35.4596 9.0811 35.189 8.81054C34.9185 8.53998 34.7665 8.17302 34.7665 7.79039C34.7665 7.40776 34.9185 7.04081 35.189 6.77025C35.4596 6.49969 35.8266 6.34769 36.2092 6.34769ZM30.1498 8.07893C31.6803 8.07893 33.1482 8.68693 34.2304 9.76917C35.3126 10.8514 35.9206 12.3192 35.9206 13.8498C35.9206 15.3803 35.3126 16.8481 34.2304 17.9303C33.1482 19.0126 31.6803 19.6206 30.1498 19.6206C28.6193 19.6206 27.1515 19.0126 26.0692 17.9303C24.987 16.8481 24.379 15.3803 24.379 13.8498C24.379 12.3192 24.987 10.8514 26.0692 9.76917C27.1515 8.68693 28.6193 8.07893 30.1498 8.07893ZM30.1498 10.3873C29.2315 10.3873 28.3508 10.7521 27.7015 11.4014C27.0521 12.0507 26.6873 12.9314 26.6873 13.8498C26.6873 14.7681 27.0521 15.6488 27.7015 16.2981C28.3508 16.9474 29.2315 17.3122 30.1498 17.3122C31.0681 17.3122 31.9488 16.9474 32.5982 16.2981C33.2475 15.6488 33.6123 14.7681 33.6123 13.8498C33.6123 12.9314 33.2475 12.0507 32.5982 11.4014C31.9488 10.7521 31.0681 10.3873 30.1498 10.3873Z" fill="white"/>
</svg>
