<svg width="49" height="28" viewBox="0 0 49 28" fill="none" xmlns="http://www.w3.org/2000/svg">
<g clip-path="url(#clip0_1_216)">
<path d="M47.2464 6.83231C46.3695 7.23086 45.4244 7.49277 44.4451 7.61803C45.4472 7.0145 46.2215 6.05797 46.5859 4.90786C45.6408 5.47722 44.5931 5.87578 43.4886 6.10352C42.589 5.12422 41.325 4.55486 39.8902 4.55486C37.2142 4.55486 35.0278 6.74121 35.0278 9.43999C35.0278 9.82716 35.0734 10.2029 35.1531 10.5559C31.0992 10.351 27.4895 8.40375 25.0867 5.45445C24.6654 6.17185 24.4263 7.0145 24.4263 7.90271C24.4263 9.59941 25.2803 11.1025 26.6012 11.9566C25.7927 11.9566 25.0412 11.7288 24.3807 11.3872V11.4214C24.3807 13.7899 26.066 15.7713 28.2979 16.2154C27.5814 16.4115 26.8291 16.4388 26.1002 16.2951C26.4095 17.2659 27.0152 18.1153 27.8322 18.724C28.6492 19.3326 29.6365 19.67 30.6551 19.6885C28.9284 21.0555 26.788 21.7944 24.5857 21.7838C24.1985 21.7838 23.8114 21.761 23.4242 21.7155C25.5878 23.1047 28.1613 23.9132 30.917 23.9132C39.8902 23.9132 44.8209 16.4659 44.8209 10.0094C44.8209 9.793 44.8209 9.58803 44.8095 9.37167C45.766 8.68843 46.5859 7.823 47.2464 6.83231Z" fill="white"/>
</g>
<defs>
<clipPath id="clip0_1_216">
<rect width="27.19" height="27.19" fill="white" transform="translate(21.6706) scale(1.00513)"/>
</clipPath>
</defs>
</svg>
