<svg width="66" height="68" viewBox="0 0 66 68" fill="none" xmlns="http://www.w3.org/2000/svg">
<path d="M39.864 12.6647H18.9788C16.9947 12.6647 15.3846 11.0546 15.3846 9.07048V3.59419C15.3846 1.6101 16.9947 0 18.9788 0H39.864C41.8481 0 43.4582 1.6101 43.4582 3.59419V9.07048C43.4582 11.057 41.8481 12.6647 39.864 12.6647Z" fill="#1A73E8"/>
<path d="M64.0154 38.8318C61.7812 36.5976 58.1384 36.5976 55.9042 38.8318L53.2523 41.4983L61.3684 49.612L64.0154 46.9649C66.2739 44.7088 66.2739 41.0904 64.0154 38.8318Z" fill="#1A73E8"/>
<path d="M50.6829 44.0774L36.5247 58.2114C36.2333 58.5271 36.039 58.9156 35.9662 59.3285L34.8976 65.6183C34.6548 67.0026 35.869 68.1925 37.2533 67.974L43.5431 66.9054C43.956 66.8326 44.3445 66.6383 44.636 66.3469L58.7942 52.1887L50.6829 44.0774Z" fill="#1A73E8"/>
<path d="M50.1244 6.33823H47.1009V9.0703C47.1009 13.0603 43.854 16.3072 39.864 16.3072H18.9788C14.9863 16.3072 11.7418 13.0603 11.7418 9.0703V6.33823H8.66977C3.88561 6.33823 0 10.2238 0 15.008V59.3283C0 64.1124 3.88561 67.998 8.66977 67.998H31.6362C31.267 67.0485 31.1286 66.0188 31.3083 64.9915L32.3744 58.7187C32.5639 57.6064 33.0738 56.5792 33.8413 55.7413L49.2987 40.3058L53.3179 36.2647C54.8114 34.7688 56.7275 33.8824 58.7893 33.6274V15.0323C58.7942 10.1996 54.9328 6.33823 50.1244 6.33823ZM25.6402 42.3603H15.1029C13.8959 42.3603 12.9172 41.3816 12.9172 40.1746C12.9172 38.9677 13.8959 37.989 15.1029 37.989H25.6402C26.8471 37.989 27.8258 38.9677 27.8258 40.1746C27.8258 41.3816 26.8471 42.3603 25.6402 42.3603ZM38.5404 29.9555H15.1053C13.8983 29.9555 12.9197 28.9768 12.9197 27.7698C12.9197 26.5628 13.8983 25.5841 15.1053 25.5841H38.5404C39.7474 25.5841 40.7261 26.5628 40.7261 27.7698C40.7261 28.9768 39.7474 29.9555 38.5404 29.9555Z" fill="#1A73E8"/>
</svg>
