<svg width="36" height="31" viewBox="0 0 36 31" fill="none" xmlns="http://www.w3.org/2000/svg">
<path d="M23.9117 22.5005L18.0162 19.9738C17.7084 19.8413 17.3723 19.788 17.0386 19.8187C16.7049 19.8494 16.3842 19.9631 16.1058 20.1495L12.9535 22.2519C11.027 21.3149 9.46782 19.7626 8.52232 17.8403L10.616 14.6407C10.7981 14.3629 10.9086 14.0444 10.9376 13.7135C10.9667 13.3826 10.9134 13.0497 10.7825 12.7445L8.2536 6.84243C8.08141 6.44197 7.78416 6.10806 7.40633 5.89066C7.02851 5.67326 6.59044 5.58408 6.1577 5.63645C4.45701 5.85505 2.89407 6.68534 1.76087 7.97219C0.627672 9.25905 0.00173639 10.9145 0 12.6291C0.00547122 17.4346 1.91689 22.0417 5.31491 25.4396C8.71293 28.8375 13.32 30.7488 18.1255 30.7541C19.8402 30.7524 21.4956 30.1264 22.7824 28.9932C24.0693 27.86 24.8996 26.2971 25.1182 24.5964C25.1704 24.1636 25.0811 23.7255 24.8636 23.3477C24.6461 22.9699 24.3122 22.6727 23.9117 22.5005Z" fill="white"/>
<path d="M31.0022 16.0904C30.9021 16.0904 30.8277 16.0904 30.7597 16.0904C29.0734 16.06 26.7839 16.0448 23.9482 16.0448C19.1493 16.0448 14.304 16.0899 14.2654 16.0904V4.07591C14.3975 3.33607 14.703 2.63794 15.1565 2.03869C15.6014 1.44653 16.179 0.966843 16.8429 0.638407C17.7872 0.194359 18.8218 -0.0235061 19.865 0.00200861H30.7618C30.7787 0.00200861 30.8226 0.00200861 30.8928 0.00200861C31.7218 0.00200861 35.862 0.267099 35.955 5.50223C36.0562 11.2819 35.955 12.7185 35.955 12.7321C35.9838 13.085 35.9417 13.4401 35.831 13.7765C35.7203 14.1128 35.5431 14.4233 35.3104 14.6902C34.5031 15.6154 33.0546 16.0904 31.0022 16.0904ZM18.5574 9.60004C18.3329 9.60033 18.1177 9.68933 17.959 9.84812C17.8003 10.0069 17.711 10.2223 17.7109 10.4468C17.711 10.6713 17.8003 10.8867 17.959 11.0455C18.1177 11.2043 18.3329 11.2933 18.5574 11.2936H27.0656C27.2901 11.2933 27.5051 11.2043 27.6638 11.0455C27.8225 10.8867 27.9117 10.6713 27.9119 10.4468C27.9117 10.2223 27.8225 10.0069 27.6638 9.84812C27.5051 9.68933 27.2901 9.60033 27.0656 9.60004H18.5574ZM18.5574 5.50754C18.3329 5.50783 18.1177 5.59736 17.959 5.75615C17.8003 5.91494 17.711 6.12981 17.7109 6.3543C17.711 6.57879 17.8003 6.7942 17.959 6.95298C18.1177 7.11177 18.3329 7.20131 18.5574 7.20159H31.7024C31.9269 7.20145 32.1422 7.11179 32.301 6.95298C32.4598 6.79418 32.549 6.57888 32.5491 6.3543C32.549 6.12972 32.4598 5.91442 32.301 5.75562C32.1422 5.59682 31.9269 5.50769 31.7024 5.50754H18.5574Z" fill="white"/>
</svg>
