<svg width="44" height="28" viewBox="0 0 44 28" fill="none" xmlns="http://www.w3.org/2000/svg">
<path d="M27.8417 17.3124L33.8318 13.8499L27.8417 10.3874V17.3124ZM41.1838 8.27532C41.3339 8.81778 41.4378 9.5449 41.507 10.4682C41.5878 11.3916 41.6224 12.1879 41.6224 12.8804L41.6917 13.8499C41.6917 16.3776 41.507 18.2358 41.1838 19.4245C40.8953 20.4633 40.2259 21.1327 39.1871 21.4212C38.6447 21.5713 37.6521 21.6752 36.1286 21.7444C34.6282 21.8252 33.2547 21.8598 31.9852 21.8598L30.15 21.9291C25.3141 21.9291 22.3017 21.7444 21.1129 21.4212C20.0742 21.1327 19.4048 20.4633 19.1162 19.4245C18.9662 18.8821 18.8623 18.155 18.7931 17.2316C18.7123 16.3083 18.6776 15.5119 18.6776 14.8194L18.6084 13.8499C18.6084 11.3223 18.7931 9.46411 19.1162 8.27532C19.4048 7.23657 20.0742 6.56716 21.1129 6.27862C21.6554 6.12858 22.648 6.0247 24.1715 5.95545C25.6719 5.87466 27.0453 5.84004 28.3149 5.84004L30.15 5.77079C34.986 5.77079 37.9983 5.95545 39.1871 6.27862C40.2259 6.56716 40.8953 7.23657 41.1838 8.27532Z" fill="white"/>
</svg>
