<svg width="51" height="51" viewBox="0 0 51 51" fill="none" xmlns="http://www.w3.org/2000/svg">
<path d="M0 25.5864C0.000186231 18.9024 2.63362 12.4875 7.32989 7.73129C12.0262 2.97509 18.4071 0.260513 25.0906 0.175567L25.0652 0.150171L43.9266 0C43.9266 0 50.6025 0.125326 50.6025 7.39259C50.6025 12.0401 50.6688 18.8895 50.7168 23.2245C50.7886 24.0026 50.8254 24.7899 50.8272 25.5864C50.8272 28.9238 50.1699 32.2285 48.8927 35.3118C47.6156 38.3951 45.7436 41.1967 43.3837 43.5565C41.0239 45.9164 38.2223 47.7884 35.139 49.0655C32.0557 50.3427 28.751 51 25.4136 51C22.0762 51 18.7716 50.3427 15.6882 49.0655C12.6049 47.7884 9.80334 45.9164 7.44347 43.5565C5.0836 41.1967 3.21165 38.3951 1.9345 35.3118C0.657342 32.2285 -4.97306e-08 28.9238 0 25.5864Z" fill="#1D65FF"/>
</svg>
