<svg width="28" height="28" viewBox="0 0 28 28" fill="none" xmlns="http://www.w3.org/2000/svg">
<path d="M5.83333 3.50005H22.1667C22.7855 3.50005 23.379 3.74589 23.8166 4.18347C24.2542 4.62106 24.5 5.21455 24.5 5.83339V22.1667C24.5 22.7856 24.2542 23.3791 23.8166 23.8166C23.379 24.2542 22.7855 24.5001 22.1667 24.5001H5.83333C5.21449 24.5001 4.62099 24.2542 4.18341 23.8166C3.74582 23.3791 3.49999 22.7856 3.49999 22.1667V5.83339C3.49999 5.21455 3.74582 4.62106 4.18341 4.18347C4.62099 3.74589 5.21449 3.50005 5.83333 3.50005ZM21 5.83339H18.0833C17.0004 5.83339 15.9617 6.2636 15.196 7.02937C14.4302 7.79514 14 8.83375 14 9.91672V12.8334H11.6667V16.3334H14V24.5001H17.5V16.3334H21V12.8334H17.5V10.5001C17.5 10.1906 17.6229 9.89389 17.8417 9.6751C18.0605 9.4563 18.3572 9.33339 18.6667 9.33339H21V5.83339Z" fill="white"/>
</svg>
