<svg width="44" height="28" viewBox="0 0 44 28" fill="none" xmlns="http://www.w3.org/2000/svg">
<path d="M38.2292 3.46255C38.8414 3.46255 39.4285 3.70574 39.8614 4.13864C40.2943 4.57153 40.5375 5.15867 40.5375 5.77087V21.9292C40.5375 22.5414 40.2943 23.1285 39.8614 23.5614C39.4285 23.9943 38.8414 24.2375 38.2292 24.2375H22.0709C21.4587 24.2375 20.8715 23.9943 20.4387 23.5614C20.0058 23.1285 19.7626 22.5414 19.7626 21.9292V5.77087C19.7626 5.15867 20.0058 4.57153 20.4387 4.13864C20.8715 3.70574 21.4587 3.46255 22.0709 3.46255H38.2292ZM37.6521 21.3521V15.235C37.6521 14.2371 37.2557 13.2801 36.5501 12.5745C35.8444 11.8689 34.8874 11.4724 33.8895 11.4724C32.9085 11.4724 31.7659 12.0726 31.2119 12.9729V11.6917H27.9917V21.3521H31.2119V15.6621C31.2119 14.7733 31.9274 14.0462 32.8162 14.0462C33.2447 14.0462 33.6557 14.2165 33.9587 14.5195C34.2617 14.8225 34.432 15.2335 34.432 15.6621V21.3521H37.6521ZM24.2407 9.8797C24.755 9.8797 25.2482 9.67541 25.6118 9.31178C25.9754 8.94815 26.1797 8.45495 26.1797 7.9407C26.1797 6.86733 25.3141 5.99016 24.2407 5.99016C23.7234 5.99016 23.2273 6.19567 22.8615 6.56146C22.4957 6.92726 22.2902 7.42339 22.2902 7.9407C22.2902 9.01407 23.1673 9.8797 24.2407 9.8797ZM25.845 21.3521V11.6917H22.648V21.3521H25.845Z" fill="white"/>
</svg>
